<svg width="32" height="32" viewBox="0 0 32 32" fill="none" xmlns="http://www.w3.org/2000/svg">
<circle cx="16" cy="16" r="16" fill="#FF914D"/>
<path d="M17.7969 8.35938C17.7969 7.8125 17.9883 7.34766 18.3711 6.96484C18.7539 6.58203 19.2188 6.39062 19.7656 6.39062C20.3125 6.39062 20.7773 6.58203 21.1602 6.96484C21.543 7.34766 21.7344 7.8125 21.7344 8.35938C21.7344 8.90625 21.543 9.37109 21.1602 9.75391C20.7773 10.1367 20.3125 10.3281 19.7656 10.3281C19.2188 10.3281 18.7539 10.1367 18.3711 9.75391C17.9883 9.37109 17.7969 8.90625 17.7969 8.35938ZM22.5 8.35938C22.5 7.8125 22.6914 7.34766 23.0742 6.96484C23.457 6.58203 23.9219 6.39062 24.4688 6.39062C25.0156 6.39062 25.4805 6.58203 25.8633 6.96484C26.2461 7.34766 26.4375 7.8125 26.4375 8.35938C26.4375 8.90625 26.2461 9.37109 25.8633 9.75391C25.4805 10.1367 25.0156 10.3281 24.4688 10.3281C23.9219 10.3281 23.457 10.1367 23.0742 9.75391C22.6914 9.37109 22.5 8.90625 22.5 8.35938ZM24.5781 13.1445C24.5781 13.6732 24.3958 14.1289 24.0312 14.5117C23.6849 14.8763 23.2565 15.0586 22.7461 15.0586H11.918C11.5716 15.0768 11.2799 15.2318 11.043 15.5234C10.8242 15.8151 10.6602 16.1432 10.5508 16.5078C10.4414 16.8724 10.3867 17.237 10.3867 17.6016C10.3867 17.9844 10.4414 18.3581 10.5508 18.7227C10.6602 19.0872 10.8242 19.4154 11.043 19.707C11.2799 19.9987 11.5716 20.1445 11.918 20.1445H22.8555C23.3659 20.1445 23.7943 20.3268 24.1406 20.6914C24.5052 21.056 24.6875 21.5117 24.6875 22.0586C24.6875 22.5872 24.5052 23.0247 24.1406 23.3711C23.7943 23.7539 23.3659 23.9453 22.8555 23.9453H12.082C10.806 23.9635 9.7487 23.6172 8.91016 22.9062C8.08984 22.1953 7.4974 21.3841 7.13281 20.4727C6.78646 19.5612 6.61328 18.6133 6.61328 17.6289C6.61328 16.681 6.79557 15.7513 7.16016 14.8398C7.52474 13.9284 8.11719 13.1172 8.9375 12.4062C9.75781 11.6953 10.806 11.3216 12.082 11.2852H12.2461C12.3555 11.2669 12.4648 11.2578 12.5742 11.2578H13.0117V8.71484C13.0299 8.20443 13.2214 7.78516 13.5859 7.45703C13.9505 7.11068 14.388 6.9375 14.8984 6.9375C15.3906 6.95573 15.8099 7.13802 16.1562 7.48438C16.5026 7.8125 16.6849 8.22266 16.7031 8.71484V11.2578H22.7461C23.2565 11.2578 23.6849 11.4401 24.0312 11.8047C24.3958 12.1693 24.5781 12.6159 24.5781 13.1445Z" fill="white"/>
</svg>
