<svg width="32" height="32" viewBox="0 0 32 32" fill="none" xmlns="http://www.w3.org/2000/svg">
<circle cx="16" cy="16" r="16" fill="#F04444"/>
<path d="M13.2578 11.5312C12.8568 10.9661 12.3646 10.7109 11.7812 10.7656C11.1068 10.9479 10.7786 11.2852 10.7969 11.7773V20.7461C10.6875 21.8398 10.0859 22.4323 8.99219 22.5234C8.48177 22.5234 8.03516 22.3594 7.65234 22.0312C7.28776 21.6849 7.10547 21.2565 7.10547 20.7461V12.2695C7.1237 10.8112 7.51562 9.63542 8.28125 8.74219C9.0651 7.84896 10.2318 7.39323 11.7812 7.375C13.4401 7.35677 14.6159 7.72135 15.3086 8.46875C16.0013 9.21615 16.4844 9.79948 16.7578 10.2188L25.8906 21.0469C26.2552 21.3932 26.4375 21.8216 26.4375 22.332C26.4557 22.8242 26.2917 23.2617 25.9453 23.6445C25.599 23.9909 25.1888 24.1732 24.7148 24.1914C24.2409 24.2279 23.8125 24.082 23.4297 23.7539L13.2578 11.5312ZM19.9297 10.4102C19.9297 9.57161 20.2214 8.86068 20.8047 8.27734C21.4062 7.67578 22.1354 7.375 22.9922 7.375C23.8307 7.375 24.5417 7.67578 25.125 8.27734C25.7266 8.86068 26.0273 9.57161 26.0273 10.4102C26.0273 11.2669 25.7266 11.9961 25.125 12.5977C24.5417 13.181 23.8307 13.4727 22.9922 13.4727C22.1354 13.4727 21.4062 13.181 20.8047 12.5977C20.2214 11.9961 19.9297 11.2669 19.9297 10.4102ZM21.4062 10.4102C21.4062 10.8477 21.5612 11.2214 21.8711 11.5312C22.181 11.8411 22.5547 11.9961 22.9922 11.9961C23.4115 11.9961 23.776 11.8411 24.0859 11.5312C24.3958 11.2214 24.5508 10.8477 24.5508 10.4102C24.5508 9.99089 24.3958 9.6263 24.0859 9.31641C23.776 9.00651 23.4115 8.85156 22.9922 8.85156C22.5547 8.85156 22.181 9.00651 21.8711 9.31641C21.5612 9.6263 21.4062 9.99089 21.4062 10.4102Z" fill="white"/>
</svg>
