<svg width="128" height="128" viewBox="0 0 128 128" fill="none" xmlns="http://www.w3.org/2000/svg">
<circle cx="64" cy="64" r="64" fill="#C9CACE"/>
<path d="M72.1328 35.7266C72.1328 33.9688 72.748 32.4746 73.9785 31.2441C75.209 30.0137 76.7031 29.3984 78.4609 29.3984C80.2188 29.3984 81.7129 30.0137 82.9434 31.2441C84.1738 32.4746 84.7891 33.9688 84.7891 35.7266C84.7891 37.4844 84.1738 38.9785 82.9434 40.209C81.7129 41.4395 80.2188 42.0547 78.4609 42.0547C76.7031 42.0547 75.209 41.4395 73.9785 40.209C72.748 38.9785 72.1328 37.4844 72.1328 35.7266ZM87.25 35.7266C87.25 33.9688 87.8652 32.4746 89.0957 31.2441C90.3262 30.0137 91.8203 29.3984 93.5781 29.3984C95.3359 29.3984 96.8301 30.0137 98.0605 31.2441C99.291 32.4746 99.9062 33.9688 99.9062 35.7266C99.9062 37.4844 99.291 38.9785 98.0605 40.209C96.8301 41.4395 95.3359 42.0547 93.5781 42.0547C91.8203 42.0547 90.3262 41.4395 89.0957 40.209C87.8652 38.9785 87.25 37.4844 87.25 35.7266ZM93.9297 51.1074C93.9297 52.8066 93.3438 54.2715 92.1719 55.502C91.0586 56.6738 89.6816 57.2598 88.041 57.2598H53.2363C52.123 57.3184 51.1855 57.8164 50.4238 58.7539C49.7207 59.6914 49.1934 60.7461 48.8418 61.918C48.4902 63.0898 48.3145 64.2617 48.3145 65.4336C48.3145 66.6641 48.4902 67.8652 48.8418 69.0371C49.1934 70.209 49.7207 71.2637 50.4238 72.2012C51.1855 73.1387 52.123 73.6074 53.2363 73.6074H88.3926C90.0332 73.6074 91.4102 74.1934 92.5234 75.3652C93.6953 76.5371 94.2812 78.002 94.2812 79.7598C94.2812 81.459 93.6953 82.8652 92.5234 83.9785C91.4102 85.209 90.0332 85.8242 88.3926 85.8242H53.7637C49.6621 85.8828 46.2637 84.7695 43.5684 82.4844C40.9316 80.1992 39.0273 77.5918 37.8555 74.6621C36.7422 71.7324 36.1855 68.6855 36.1855 65.5215C36.1855 62.4746 36.7715 59.4863 37.9434 56.5566C39.1152 53.627 41.0195 51.0195 43.6562 48.7344C46.293 46.4492 49.6621 45.248 53.7637 45.1309H54.291C54.6426 45.0723 54.9941 45.043 55.3457 45.043H56.752V36.8691C56.8105 35.2285 57.4258 33.8809 58.5977 32.8262C59.7695 31.7129 61.1758 31.1562 62.8164 31.1562C64.3984 31.2148 65.7461 31.8008 66.8594 32.9141C67.9727 33.9688 68.5586 35.2871 68.6172 36.8691V45.043H88.041C89.6816 45.043 91.0586 45.6289 92.1719 46.8008C93.3438 47.9727 93.9297 49.4082 93.9297 51.1074Z" fill="white"/>
</svg>
