<svg width="64" height="64" viewBox="0 0 64 64" fill="none" xmlns="http://www.w3.org/2000/svg">
<circle cx="32" cy="32" r="32" fill="#FF914D"/>
<path d="M34.9375 18.1875C34.9375 17.25 35.2656 16.4531 35.9219 15.7969C36.5781 15.1406 37.375 14.8125 38.3125 14.8125C39.25 14.8125 40.0469 15.1406 40.7031 15.7969C41.3594 16.4531 41.6875 17.25 41.6875 18.1875C41.6875 19.125 41.3594 19.9219 40.7031 20.5781C40.0469 21.2344 39.25 21.5625 38.3125 21.5625C37.375 21.5625 36.5781 21.2344 35.9219 20.5781C35.2656 19.9219 34.9375 19.125 34.9375 18.1875ZM43 18.1875C43 17.25 43.3281 16.4531 43.9844 15.7969C44.6406 15.1406 45.4375 14.8125 46.375 14.8125C47.3125 14.8125 48.1094 15.1406 48.7656 15.7969C49.4219 16.4531 49.75 17.25 49.75 18.1875C49.75 19.125 49.4219 19.9219 48.7656 20.5781C48.1094 21.2344 47.3125 21.5625 46.375 21.5625C45.4375 21.5625 44.6406 21.2344 43.9844 20.5781C43.3281 19.9219 43 19.125 43 18.1875ZM46.5625 26.3906C46.5625 27.2969 46.25 28.0781 45.625 28.7344C45.0312 29.3594 44.2969 29.6719 43.4219 29.6719H24.8594C24.2656 29.7031 23.7656 29.9688 23.3594 30.4688C22.9844 30.9688 22.7031 31.5312 22.5156 32.1562C22.3281 32.7812 22.2344 33.4062 22.2344 34.0312C22.2344 34.6875 22.3281 35.3281 22.5156 35.9531C22.7031 36.5781 22.9844 37.1406 23.3594 37.6406C23.7656 38.1406 24.2656 38.3906 24.8594 38.3906H43.6094C44.4844 38.3906 45.2188 38.7031 45.8125 39.3281C46.4375 39.9531 46.75 40.7344 46.75 41.6719C46.75 42.5781 46.4375 43.3281 45.8125 43.9219C45.2188 44.5781 44.4844 44.9062 43.6094 44.9062H25.1406C22.9531 44.9375 21.1406 44.3438 19.7031 43.125C18.2969 41.9062 17.2812 40.5156 16.6562 38.9531C16.0625 37.3906 15.7656 35.7656 15.7656 34.0781C15.7656 32.4531 16.0781 30.8594 16.7031 29.2969C17.3281 27.7344 18.3438 26.3438 19.75 25.125C21.1562 23.9062 22.9531 23.2656 25.1406 23.2031H25.4219C25.6094 23.1719 25.7969 23.1562 25.9844 23.1562H26.7344V18.7969C26.7656 17.9219 27.0938 17.2031 27.7188 16.6406C28.3438 16.0469 29.0938 15.75 29.9688 15.75C30.8125 15.7812 31.5312 16.0938 32.125 16.6875C32.7188 17.25 33.0312 17.9531 33.0625 18.7969V23.1562H43.4219C44.2969 23.1562 45.0312 23.4688 45.625 24.0938C46.25 24.7188 46.5625 25.4844 46.5625 26.3906Z" fill="white"/>
</svg>
