<svg width="64" height="64" viewBox="0 0 64 64" fill="none" xmlns="http://www.w3.org/2000/svg">
<circle cx="32" cy="32" r="32" fill="#F04444"/>
<path d="M27.1562 23.625C26.4688 22.6562 25.625 22.2188 24.625 22.3125C23.4688 22.625 22.9062 23.2031 22.9375 24.0469V39.4219C22.75 41.2969 21.7188 42.3125 19.8438 42.4688C18.9688 42.4688 18.2031 42.1875 17.5469 41.625C16.9219 41.0312 16.6094 40.2969 16.6094 39.4219V24.8906C16.6406 22.3906 17.3125 20.375 18.625 18.8438C19.9688 17.3125 21.9688 16.5312 24.625 16.5C27.4688 16.4688 29.4844 17.0938 30.6719 18.375C31.8594 19.6562 32.6875 20.6562 33.1562 21.375L48.8125 39.9375C49.4375 40.5312 49.75 41.2656 49.75 42.1406C49.7812 42.9844 49.5 43.7344 48.9062 44.3906C48.3125 44.9844 47.6094 45.2969 46.7969 45.3281C45.9844 45.3906 45.25 45.1406 44.5938 44.5781L27.1562 23.625ZM38.5938 21.7031C38.5938 20.2656 39.0938 19.0469 40.0938 18.0469C41.125 17.0156 42.375 16.5 43.8438 16.5C45.2812 16.5 46.5 17.0156 47.5 18.0469C48.5312 19.0469 49.0469 20.2656 49.0469 21.7031C49.0469 23.1719 48.5312 24.4219 47.5 25.4531C46.5 26.4531 45.2812 26.9531 43.8438 26.9531C42.375 26.9531 41.125 26.4531 40.0938 25.4531C39.0938 24.4219 38.5938 23.1719 38.5938 21.7031ZM41.125 21.7031C41.125 22.4531 41.3906 23.0938 41.9219 23.625C42.4531 24.1562 43.0938 24.4219 43.8438 24.4219C44.5625 24.4219 45.1875 24.1562 45.7188 23.625C46.25 23.0938 46.5156 22.4531 46.5156 21.7031C46.5156 20.9844 46.25 20.3594 45.7188 19.8281C45.1875 19.2969 44.5625 19.0312 43.8438 19.0312C43.0938 19.0312 42.4531 19.2969 41.9219 19.8281C41.3906 20.3594 41.125 20.9844 41.125 21.7031Z" fill="white"/>
</svg>
