<svg width="128" height="128" viewBox="0 0 128 128" fill="none" xmlns="http://www.w3.org/2000/svg">
<circle cx="64" cy="64" r="64" fill="#F04444"/>
<path d="M57.543 45.9219C56.2539 44.1055 54.6719 43.2852 52.7969 43.4609C50.6289 44.0469 49.5742 45.1309 49.6328 46.7129V75.541C49.2812 79.0566 47.3477 80.9609 43.832 81.2539C42.1914 81.2539 40.7559 80.7266 39.5254 79.6719C38.3535 78.5586 37.7676 77.1816 37.7676 75.541V48.2949C37.8262 43.6074 39.0859 39.8281 41.5469 36.957C44.0664 34.0859 47.8164 32.6211 52.7969 32.5625C58.1289 32.5039 61.9082 33.6758 64.1348 36.0781C66.3613 38.4805 67.9141 40.3555 68.793 41.7031L98.1484 76.5078C99.3203 77.6211 99.9062 78.998 99.9062 80.6387C99.9648 82.2207 99.4375 83.627 98.3242 84.8574C97.2109 85.9707 95.8926 86.5566 94.3691 86.6152C92.8457 86.7324 91.4688 86.2637 90.2383 85.209L57.543 45.9219ZM78.9883 42.3184C78.9883 39.623 79.9258 37.3379 81.8008 35.4629C83.7344 33.5293 86.0781 32.5625 88.832 32.5625C91.5273 32.5625 93.8125 33.5293 95.6875 35.4629C97.6211 37.3379 98.5879 39.623 98.5879 42.3184C98.5879 45.0723 97.6211 47.416 95.6875 49.3496C93.8125 51.2246 91.5273 52.1621 88.832 52.1621C86.0781 52.1621 83.7344 51.2246 81.8008 49.3496C79.9258 47.416 78.9883 45.0723 78.9883 42.3184ZM83.7344 42.3184C83.7344 43.7246 84.2324 44.9258 85.2285 45.9219C86.2246 46.918 87.4258 47.416 88.832 47.416C90.1797 47.416 91.3516 46.918 92.3477 45.9219C93.3438 44.9258 93.8418 43.7246 93.8418 42.3184C93.8418 40.9707 93.3438 39.7988 92.3477 38.8027C91.3516 37.8066 90.1797 37.3086 88.832 37.3086C87.4258 37.3086 86.2246 37.8066 85.2285 38.8027C84.2324 39.7988 83.7344 40.9707 83.7344 42.3184Z" fill="white"/>
</svg>
