<svg width="48" height="48" viewBox="0 0 48 48" fill="none" xmlns="http://www.w3.org/2000/svg">
<rect width="48" height="48" fill="#1E212A"/>
<circle cx="28" cy="20" r="18" fill="white"/>
<circle cx="16" cy="32" r="8" fill="white"/>
<circle cx="5.5" cy="42.5" r="4.5" fill="white"/>
<path d="M29.9688 13.5938C29.9688 13.125 30.1328 12.7266 30.4609 12.3984C30.7891 12.0703 31.1875 11.9062 31.6562 11.9062C32.125 11.9062 32.5234 12.0703 32.8516 12.3984C33.1797 12.7266 33.3438 13.125 33.3438 13.5938C33.3438 14.0625 33.1797 14.4609 32.8516 14.7891C32.5234 15.1172 32.125 15.2812 31.6562 15.2812C31.1875 15.2812 30.7891 15.1172 30.4609 14.7891C30.1328 14.4609 29.9688 14.0625 29.9688 13.5938ZM34 13.5938C34 13.125 34.1641 12.7266 34.4922 12.3984C34.8203 12.0703 35.2188 11.9062 35.6875 11.9062C36.1562 11.9062 36.5547 12.0703 36.8828 12.3984C37.2109 12.7266 37.375 13.125 37.375 13.5938C37.375 14.0625 37.2109 14.4609 36.8828 14.7891C36.5547 15.1172 36.1562 15.2812 35.6875 15.2812C35.2188 15.2812 34.8203 15.1172 34.4922 14.7891C34.1641 14.4609 34 14.0625 34 13.5938ZM35.7812 17.6953C35.7812 18.1484 35.625 18.5391 35.3125 18.8672C35.0156 19.1797 34.6484 19.3359 34.2109 19.3359H24.9297C24.6328 19.3516 24.3828 19.4844 24.1797 19.7344C23.9922 19.9844 23.8516 20.2656 23.7578 20.5781C23.6641 20.8906 23.6172 21.2031 23.6172 21.5156C23.6172 21.8438 23.6641 22.1641 23.7578 22.4766C23.8516 22.7891 23.9922 23.0703 24.1797 23.3203C24.3828 23.5703 24.6328 23.6953 24.9297 23.6953H34.3047C34.7422 23.6953 35.1094 23.8516 35.4062 24.1641C35.7188 24.4766 35.875 24.8672 35.875 25.3359C35.875 25.7891 35.7188 26.1641 35.4062 26.4609C35.1094 26.7891 34.7422 26.9531 34.3047 26.9531H25.0703C23.9766 26.9688 23.0703 26.6719 22.3516 26.0625C21.6484 25.4531 21.1406 24.7578 20.8281 23.9766C20.5312 23.1953 20.3828 22.3828 20.3828 21.5391C20.3828 20.7266 20.5391 19.9297 20.8516 19.1484C21.1641 18.3672 21.6719 17.6719 22.375 17.0625C23.0781 16.4531 23.9766 16.1328 25.0703 16.1016H25.2109C25.3047 16.0859 25.3984 16.0781 25.4922 16.0781H25.8672V13.8984C25.8828 13.4609 26.0469 13.1016 26.3594 12.8203C26.6719 12.5234 27.0469 12.375 27.4844 12.375C27.9062 12.3906 28.2656 12.5469 28.5625 12.8438C28.8594 13.125 29.0156 13.4766 29.0312 13.8984V16.0781H34.2109C34.6484 16.0781 35.0156 16.2344 35.3125 16.5469C35.625 16.8594 35.7812 17.2422 35.7812 17.6953Z" fill="#FF914D"/>
</svg>
