<svg width="64" height="64" viewBox="0 0 64 64" fill="none" xmlns="http://www.w3.org/2000/svg">
<circle cx="32" cy="32" r="32" fill="#F04444"/>
<path d="M22.2812 42.4219C22.0938 44.2969 21.0625 45.3125 19.1875 45.4688C18.3125 45.4688 17.5469 45.1875 16.8906 44.625C16.2656 44.0312 15.9531 43.2969 15.9531 42.4219V20.2969C15.9844 19.4219 16.3125 18.7031 16.9375 18.1406C17.5625 17.5469 18.3125 17.25 19.1875 17.25H38.875C41.625 17.3438 43.7031 17.9531 45.1094 19.0781C46.5156 20.1719 47.5312 21.4219 48.1562 22.8281C48.7812 24.2344 49.0938 25.6562 49.0938 27.0938C49.0938 28.5938 48.7812 30.0469 48.1562 31.4531C47.5625 32.8594 46.5469 34.125 45.1094 35.25C43.7031 36.3438 41.9062 36.875 39.7188 36.8438H27.9062C27.0312 36.8438 26.2969 36.5312 25.7031 35.9062C25.0781 35.3125 24.7656 34.5781 24.7656 33.7031C24.7656 32.8281 25.0625 32.0938 25.6562 31.5C26.2812 30.875 27.0312 30.5625 27.9062 30.5625H40C40.5938 30.5625 41.0781 30.375 41.4531 30C41.8594 29.5938 42.1562 29.1406 42.3438 28.6406C42.5312 28.1094 42.625 27.5781 42.625 27.0469C42.625 26.5469 42.5312 26.0469 42.3438 25.5469C42.1562 25.0156 41.8594 24.5625 41.4531 24.1875C41.0781 23.7812 40.5938 23.5625 40 23.5312H23.5C22.6875 23.5625 22.2812 23.9688 22.2812 24.75V42.4219Z" fill="white"/>
</svg>
