<svg width="64" height="64" viewBox="0 0 64 64" fill="none" xmlns="http://www.w3.org/2000/svg">
<circle cx="32" cy="32" r="32" fill="#FF914D"/>
<path d="M40.1562 16.25C41.75 16.2812 43.1719 16.7812 44.4219 17.75C45.6719 18.7188 46.6719 19.875 47.4219 21.2188C48.2031 22.5625 48.7812 23.9844 49.1562 25.4844C49.5312 26.9844 49.7188 28.5156 49.7188 30.0781C49.7188 32.1406 49.3906 34.1719 48.7344 36.1719C48.1094 38.1406 47.0625 39.8906 45.5938 41.4219C44.1562 42.9531 42.3438 43.7812 40.1562 43.9062H34.7188V47.0469C34.5312 48.9219 33.5 49.9375 31.625 50.0938C30.75 50.0938 29.9844 49.7969 29.3281 49.2031C28.7031 48.6406 28.3906 47.9219 28.3906 47.0469V43.9062H22.8594C20.6719 43.8125 18.8438 43 17.375 41.4688C15.9062 39.9375 14.8594 38.1719 14.2344 36.1719C13.6406 34.1719 13.3438 32.1406 13.3438 30.0781C13.3438 28.0156 13.6562 26 14.2812 24.0312C14.9062 22.0312 15.9375 20.2656 17.375 18.7344C18.8438 17.1719 20.6719 16.3438 22.8594 16.25H40.1562ZM38.5625 37.625C39.75 37.5625 40.7344 37.125 41.5156 36.3125C42.3281 35.4688 42.9062 34.5 43.25 33.4062C43.5938 32.3125 43.7656 31.2031 43.7656 30.0781C43.7656 28.9531 43.5781 27.8594 43.2031 26.7969C42.8594 25.7031 42.2969 24.7344 41.5156 23.8906C40.7344 23.0469 39.75 22.5938 38.5625 22.5312H24.3125C23.125 22.5938 22.1406 23.0469 21.3594 23.8906C20.5781 24.7344 20 25.7031 19.625 26.7969C19.2812 27.8594 19.1094 28.9531 19.1094 30.0781C19.1094 31.2031 19.2812 32.3125 19.625 33.4062C19.9688 34.5 20.5312 35.4688 21.3125 36.3125C22.125 37.125 23.125 37.5625 24.3125 37.625H28.3906V35.3281C28.4219 34.4531 28.75 33.7344 29.375 33.1719C30 32.5781 30.75 32.2812 31.625 32.2812C32.4688 32.3125 33.1875 32.625 33.7812 33.2188C34.375 33.7812 34.6875 34.4844 34.7188 35.3281V37.625H38.5625Z" fill="white"/>
</svg>
