<svg width="64" height="64" viewBox="0 0 64 64" fill="none" xmlns="http://www.w3.org/2000/svg">
<circle cx="32" cy="32" r="32" fill="#10B982"/>
<path d="M22.2812 42.5156C22.0938 44.3906 21.0625 45.4062 19.1875 45.5625C18.3125 45.5625 17.5469 45.2812 16.8906 44.7188C16.2656 44.125 15.9531 43.3906 15.9531 42.5156V20.2969C15.9844 19.4219 16.3125 18.7031 16.9375 18.1406C17.5625 17.5469 18.3125 17.25 19.1875 17.25H21.4844H27.25H38.8281C39.0156 17.25 39.2031 17.2656 39.3906 17.2969H39.6719C41.8594 17.3594 43.6562 17.8594 45.0625 18.7969C46.4688 19.7344 47.4844 20.8125 48.1094 22.0312C48.7344 23.2188 49.0469 24.4219 49.0469 25.6406C49.0469 26.8906 48.7344 28.125 48.1094 29.3438C47.5156 30.5312 46.5 31.5938 45.0625 32.5312C43.6562 33.4688 41.8594 33.9688 39.6719 34.0312H31.4219C31.6719 35.5938 32.1875 36.75 32.9688 37.5C33.7188 38.25 34.6719 38.625 35.8281 38.625H45.9531C46.8281 38.6562 47.5469 38.9844 48.1094 39.6094C48.7031 40.2344 49 40.9844 49 41.8594C48.9688 42.7031 48.6562 43.4219 48.0625 44.0156C47.5 44.5781 46.7969 44.875 45.9531 44.9062H34.9844C32.6719 44.9375 30.5781 44.0312 28.7031 42.1875C26.8281 40.3438 25.6875 38.1562 25.2812 35.625C24.7188 32.8125 24.4375 31.2344 24.4375 30.8906C24.4375 30.0156 24.7344 29.2812 25.3281 28.6875C25.9531 28.0625 26.7031 27.75 27.5781 27.75H39.9531C40.5469 27.7188 41.0312 27.5938 41.4062 27.375C41.8125 27.125 42.1094 26.8594 42.2969 26.5781C42.4844 26.2656 42.5781 25.9531 42.5781 25.6406C42.5781 25.3281 42.4844 25.0312 42.2969 24.75C42.1094 24.4375 41.8125 24.1719 41.4062 23.9531C41.0312 23.7031 40.5469 23.5625 39.9531 23.5312H27.25H23.5C22.6875 23.5625 22.2812 23.9688 22.2812 24.75V42.5156Z" fill="white"/>
</svg>
