<?xml version="1.0" encoding="UTF-8"?>
<svg width="229px" height="99px" viewBox="0 0 229 99" version="1.1" xmlns="http://www.w3.org/2000/svg" xmlns:xlink="http://www.w3.org/1999/xlink">
    <!-- Generator: Sketch 43.2 (39069) - http://www.bohemiancoding.com/sketch -->
    <title>Group 53</title>
    <desc>Created with Sketch.</desc>
    <defs></defs>
    <g id="Symbols" stroke="none" stroke-width="1" fill="none" fill-rule="evenodd">
        <g id="header" transform="translate(-28.000000, -18.000000)">
            <g id="Group-53">
                <g transform="translate(28.000000, 17.768462)">
                    <path d="M135.964239,75.2824615 L112.418876,75.2824615 L112.418876,34.7547692 C112.418876,32.6309231 114.144472,30.9086154 116.274095,30.9086154 C118.403718,30.9086154 120.129313,32.6309231 120.129313,34.7547692 L120.129313,67.5901538 L135.964239,67.5901538 C138.093862,67.5901538 139.819458,69.3124615 139.819458,71.4363077 C139.819458,73.5601538 138.093862,75.2824615 135.964239,75.2824615" id="Fill-3" fill="#E7380E"></path>
                    <path d="M154.75766,75.018 C147.691815,75.018 141.943684,69.2833846 141.943684,62.2341538 L141.943684,53.0949231 C141.943684,50.9703077 143.66928,49.2487692 145.798903,49.2487692 C147.928526,49.2487692 149.654122,50.9703077 149.654122,53.0949231 L149.654122,62.2341538 C149.654122,65.0418462 151.944122,67.3256923 154.75766,67.3256923 C157.571199,67.3256923 159.861199,65.0418462 159.861199,62.2341538 L159.861199,53.0949231 C159.861199,50.9703077 161.586795,49.2487692 163.716418,49.2487692 C165.846041,49.2487692 167.571637,50.9703077 167.571637,53.0949231 L167.571637,62.2341538 C167.571637,69.2833846 161.823505,75.018 154.75766,75.018" id="Fill-5" fill="#E7380E"></path>
                    <path d="M192.061452,75.4071538 C191.075287,75.4071538 190.08758,75.0317692 189.335812,74.281 L170.826135,55.8140769 C169.320287,54.3125385 169.320287,51.8771538 170.826135,50.3748462 C172.330442,48.8733077 174.773108,48.8733077 176.277415,50.3748462 L194.787092,68.841 C196.29294,70.3433077 196.29294,72.7786923 194.787092,74.281 C194.035324,75.0317692 193.047617,75.4071538 192.061452,75.4071538" id="Fill-7" fill="#E7380E"></path>
                    <path d="M173.551852,75.2824615 C172.565687,75.2824615 171.57798,74.9070769 170.826212,74.1563077 C169.320364,72.654 169.320364,70.2186154 170.826212,68.7163077 L189.272664,50.3132308 C190.77697,48.8116923 193.219637,48.8116923 194.723943,50.3132308 C196.229792,51.8155385 196.229792,54.2509231 194.723943,55.7524615 L176.277492,74.1563077 C175.525724,74.9070769 174.538017,75.2824615 173.551852,75.2824615" id="Fill-9" fill="#E7380E"></path>
                    <path d="M210.854873,91.5083846 C203.789028,91.5083846 198.040896,85.7737692 198.040896,78.7245385 C198.040896,76.6006923 199.766492,74.8783846 201.896115,74.8783846 C204.025738,74.8783846 205.751334,76.6006923 205.751334,78.7245385 C205.751334,81.5322308 208.041334,83.8160769 210.854873,83.8160769 C213.668411,83.8160769 215.958411,81.5322308 215.958411,78.7245385 L215.958411,62.2353077 C215.958411,60.1114615 217.684007,58.3891538 219.81363,58.3891538 C221.943253,58.3891538 223.668849,60.1114615 223.668849,62.2353077 L223.668849,78.7245385 C223.668849,85.7737692 217.920718,91.5083846 210.854873,91.5083846" id="Fill-11" fill="#E7380E"></path>
                    <path d="M210.854873,75.018 C203.789028,75.018 198.040896,69.2833846 198.040896,62.2341538 L198.040896,53.0949231 C198.040896,50.9703077 199.766492,49.2487692 201.896115,49.2487692 C204.025738,49.2487692 205.751334,50.9703077 205.751334,53.0949231 L205.751334,62.2341538 C205.751334,65.0418462 208.041334,67.3256923 210.854873,67.3256923 C213.668411,67.3256923 215.958411,65.0418462 215.958411,62.2341538 L215.958411,53.0949231 C215.958411,50.9703077 217.684007,49.2487692 219.81363,49.2487692 C221.943253,49.2487692 223.668849,50.9703077 223.668849,53.0949231 L223.668849,62.2341538 C223.668849,69.2833846 217.920718,75.018 210.854873,75.018" id="Fill-13" fill="#E7380E"></path>
                    <path d="M76.9296586,50.0326154 C76.9296586,35.5349231 65.1504229,23.7826154 50.6177899,23.7826154 C36.0851569,23.7826154 24.3059212,35.5349231 24.3059212,50.0326154 C24.3059212,56.4603077 26.6252209,62.3464615 30.4704162,66.9095385 C38.6003017,77.8756923 39.3412747,80.9626154 39.3412747,80.9626154 L61.8943051,80.9626154 C61.8943051,80.9626154 62.6352781,77.8756923 70.7651636,66.9095385 C74.6103589,62.3464615 76.9296586,56.4603077 76.9296586,50.0326154" id="Fill-15" fill="#FEFEFE"></path>
                    <path d="M40.8833623,78.6553077 L60.3522175,78.6553077 C61.3306721,76.6291538 63.6098774,72.6799231 68.9054061,65.5376154 L68.9948471,65.4245385 C72.6195239,61.123 74.6165273,55.6568462 74.6165273,50.033 C74.6165273,36.8306923 63.8504431,26.0906923 50.6177899,26.0906923 C37.3851367,26.0906923 26.6190525,36.8306923 26.6190525,50.033 C26.6190525,55.6568462 28.6160559,61.123 32.2407327,65.4245385 L32.3301737,65.5376154 C37.6257024,72.6799231 39.9049077,76.6291538 40.8833623,78.6553077 L40.8833623,78.6553077 Z M63.7185946,83.2706923 L37.5169852,83.2706923 L37.1052478,81.5553077 C37.0011569,81.2406923 35.8268572,78.0222308 28.653066,68.3383846 C24.3568101,63.2145385 21.9927899,56.7168462 21.9927899,50.033 C21.9927899,34.2860769 34.8337529,21.4753077 50.6177899,21.4753077 C66.4018269,21.4753077 79.2427899,34.2860769 79.2427899,50.033 C79.2427899,56.7168462 76.8787697,63.2145385 72.5825138,68.3383846 C65.4087226,78.0222308 64.2344229,81.2406923 64.130332,81.5553077 L63.7185946,83.2706923 Z" id="Fill-17" fill="#E7380E"></path>
                    <path d="M61.8461148,86.7983846 L39.389465,86.7983846 L39.389465,90.8099231 L39.389465,90.8114615 C39.389465,92.4476154 42.6694852,93.833 47.1962832,94.3076154 L47.1962832,96.1706923 L54.1356771,96.1706923 L54.1356771,94.2953077 C58.6131283,93.813 61.8461148,92.4353077 61.8461148,90.8114615 L61.8461148,90.8099231 L61.8461148,86.7983846 Z" id="Fill-19" fill="#FEFEFE"></path>
                    <path d="M49.5094145,93.8626923 L51.8225458,93.8626923 L51.8225458,92.2234615 L53.887401,92.0011538 C57.164337,91.6480769 58.9724347,90.8665385 59.5329835,90.4326923 L59.5329835,89.1057692 L41.7025963,89.1057692 L41.7025963,90.4326923 C42.2670003,90.8719231 44.1043976,91.6626923 47.4376199,92.0126923 L49.5094145,92.2296154 L49.5094145,93.8626923 Z M56.4488084,98.4780769 L44.8831519,98.4780769 L44.8831519,96.3157692 C39.8914145,95.4434615 37.0763337,93.4834615 37.0763337,90.8111538 L37.0763337,84.4903846 L64.1592461,84.4903846 L64.1592461,90.8096154 C64.1592461,93.4634615 61.3796333,95.4165385 56.4488084,96.2980769 L56.4488084,98.4780769 Z" id="Fill-21" fill="#E7380E"></path>
                    <path d="M50.6177899,64.3584615 L48.7865609,62.5376923 C41.9990626,56.5461538 37.5593926,52.5061538 37.5593926,47.55 C37.5593926,43.5184615 40.6959987,40.3869231 44.7393522,40.3869231 C46.9661266,40.3869231 49.1859616,41.4307692 50.6177899,43.1238462 C52.0542444,41.4307692 54.2725374,40.3869231 56.4969987,40.3869231 C60.5403522,40.3869231 63.6761872,43.5184615 63.6761872,47.55 C63.6761872,52.5061538 59.2396013,56.5461538 52.4490189,62.5376923 L50.6177899,64.3584615 Z" id="Fill-23" fill="#FFF000"></path>
                    <path d="M44.7393522,41.5410769 C41.3621805,41.5410769 38.7159582,44.1803077 38.7159582,47.5503077 C38.7159582,51.8956923 42.6320896,55.5641538 49.5529785,61.6733846 L50.6170189,62.7295385 L51.6324835,61.7203077 C58.6034902,55.5664615 62.5196215,51.9003077 62.5196215,47.5503077 C62.5196215,44.1803077 59.8741704,41.5410769 56.4969987,41.5410769 C54.6333859,41.5410769 52.7196552,42.4333846 51.500635,43.8695385 L50.6162478,44.9110769 L49.7341737,43.868 C48.5197798,42.4326154 46.6060492,41.5410769 44.7393522,41.5410769 L44.7393522,41.5410769 Z M50.6177899,65.9872308 L47.9700256,63.3549231 C41.2758236,57.4487692 36.4028269,53.1472308 36.4028269,47.5503077 C36.4028269,42.8864615 40.0652848,39.2333846 44.7393522,39.2333846 C46.8874801,39.2333846 49.0070795,40.0564615 50.6185609,41.4787692 C52.2331266,40.0564615 54.3527259,39.2333846 56.4969987,39.2333846 C61.171066,39.2333846 64.8327529,42.8864615 64.8327529,47.5503077 C64.8327529,53.1518462 59.9589852,57.4510769 53.2154364,63.4018462 L50.6177899,65.9872308 Z" id="Fill-25" fill="#E7380E"></path>
                    <path d="M57.6339798,13.7056923 C57.5013603,13.7056923 57.3664276,13.6941538 57.232266,13.6710769 C55.9739226,13.4503077 55.1319428,12.2549231 55.3524613,10.9995385 L56.8159024,2.66415385 C57.0371919,1.40876923 58.236936,0.570307692 59.4937374,0.788769231 C60.7520808,1.00953846 61.5940606,2.20492308 61.3735421,3.46030769 L59.90933,11.7956923 C59.7127138,12.9164615 58.7365724,13.7056923 57.6339798,13.7056923" id="Fill-27" fill="#E7380E"></path>
                    <path d="M43.792896,13.7206923 C42.6926165,13.7206923 41.7180172,12.9345385 41.5183168,11.8160769 L40.0363707,3.48530769 C39.8135391,2.23069231 40.6524347,1.03223077 41.9100071,0.809923077 C43.1668084,0.588384615 44.3680946,1.42376923 44.5916973,2.67915385 L46.0736434,11.0091538 C46.2964751,12.2637692 45.4575795,13.4622308 44.2000071,13.6845385 C44.0635323,13.7091538 43.9278286,13.7206923 43.792896,13.7206923" id="Fill-29" fill="#E7380E"></path>
                    <path d="M30.8018108,18.4581538 C30.0030094,18.4581538 29.2265684,18.0450769 28.797097,17.3058462 L24.5494168,9.98276923 C23.9094505,8.87969231 24.287262,7.46815385 25.3921677,6.82969231 C26.5001576,6.19123077 27.9134808,6.56738462 28.5534471,7.67123077 L32.8018983,14.9943077 C33.4418646,16.0973846 33.0640532,17.5089231 31.9583764,18.1473846 C31.5929017,18.3581538 31.1950431,18.4581538 30.8018108,18.4581538" id="Fill-31" fill="#E7380E"></path>
                    <path d="M20.2082862,27.3422308 C19.6839764,27.3422308 19.1581246,27.1660769 18.724798,26.8037692 L12.224899,21.3722308 C11.2449024,20.5537692 11.116138,19.0983846 11.9357576,18.1214615 C12.7561481,17.1445385 14.214963,17.0145385 15.1941886,17.8337692 L21.6948586,23.2653077 C22.6740842,24.0837692 22.8028485,25.5391538 21.983229,26.5160769 C21.526,27.0614615 20.8690707,27.3422308 20.2082862,27.3422308" id="Fill-33" fill="#E7380E"></path>
                    <path d="M13.3065192,39.3043846 C13.0443643,39.3043846 12.7775832,39.2597692 12.5185125,39.1651538 L4.54669091,36.2805385 C3.34540471,35.8459231 2.72471448,34.5228462 3.16035421,33.3243846 C3.59599394,32.1259231 4.92604444,31.5074615 6.12347542,31.9420769 L14.0945259,34.8266923 C15.2958121,35.2613077 15.9165024,36.5843846 15.4808626,37.7828462 C15.1400613,38.7213077 14.2525899,39.3043846 13.3065192,39.3043846" id="Fill-35" fill="#E7380E"></path>
                    <path d="M2.43958249,52.9093846 C1.16350505,52.9093846 0.127993266,51.8778462 0.126451178,50.604 C0.124909091,49.3293846 1.15964983,48.2955385 2.43726936,48.294 L10.9172088,48.2847692 L10.9195219,48.2847692 C12.1955993,48.2847692 13.2311111,49.3163077 13.2326532,50.5901538 C13.2341953,51.8647692 12.1994545,52.8986154 10.921835,52.9001538 L2.44189562,52.9093846 L2.43958249,52.9093846 Z" id="Fill-37" fill="#E7380E"></path>
                    <path d="M5.37317273,69.393 C4.42941515,69.393 3.54271481,68.8122308 3.20037138,67.8760769 C2.76164747,66.6791538 3.38002458,65.3545385 4.57976869,64.9168462 L12.5446508,62.0153077 C13.745166,61.5783846 15.0729034,62.1945385 15.5108562,63.3906923 C15.9495801,64.5883846 15.331203,65.913 14.1314589,66.3499231 L6.16657677,69.2522308 C5.90442189,69.3476154 5.6368697,69.393 5.37317273,69.393" id="Fill-39" fill="#E7380E"></path>
                    <path d="M96.1847034,69.2878462 C95.9225485,69.2878462 95.6557673,69.2432308 95.3966966,69.1486154 L87.422562,66.2632308 C86.2212758,65.8286154 85.6005855,64.5055385 86.0362253,63.3070769 C86.471865,62.1086154 87.8026865,61.4909231 88.9993465,61.9247692 L96.9727101,64.8101538 C98.1739963,65.2447692 98.7946865,66.5678462 98.3590468,67.7663077 C98.0182455,68.7047692 97.1307741,69.2878462 96.1847034,69.2878462" id="Fill-41" fill="#E7380E"></path>
                    <path d="M90.5968721,52.8068462 C89.3207946,52.8068462 88.2852828,51.7753077 88.2837407,50.5014615 C88.2821987,49.2268462 89.3169394,48.193 90.5945589,48.1914615 L99.0775825,48.1822308 L99.0798956,48.1822308 C100.355973,48.1822308 101.391485,49.2137692 101.393027,50.4876154 C101.394569,51.7622308 100.359828,52.7960769 99.0822088,52.7976154 L90.5991852,52.8068462 L90.5968721,52.8068462 Z" id="Fill-43" fill="#E7380E"></path>
                    <path d="M88.179804,39.2176154 C87.2360465,39.2176154 86.3501172,38.6368462 86.0077737,37.7014615 C85.5682788,36.5045385 86.1858848,35.1791538 87.3864,34.7414615 L95.3528242,31.8368462 C96.5494842,31.4006923 97.8803057,32.0160769 98.3182586,33.2122308 C98.7577535,34.4099231 98.1401475,35.7345385 96.9396323,36.1722308 L88.9732081,39.0768462 C88.7118242,39.1722308 88.443501,39.2176154 88.179804,39.2176154" id="Fill-45" fill="#E7380E"></path>
                    <path d="M81.2495084,27.2712308 C80.590266,27.2712308 79.9356498,26.992 79.4776498,26.4489231 C78.6557172,25.4743077 78.7813973,24.0181538 79.7583098,23.1981538 L86.2481852,17.7504615 C87.2266397,16.9289231 88.6862256,17.0550769 89.5081582,18.0304615 C90.3300909,19.0058462 90.2044108,20.4612308 89.2274983,21.282 L82.7376229,26.7289231 C82.3035253,27.0935385 81.7753603,27.2712308 81.2495084,27.2712308" id="Fill-47" fill="#E7380E"></path>
                    <path d="M70.6355512,18.4104615 C70.2438609,18.4104615 69.8475444,18.3112308 69.4836118,18.102 C68.3763929,17.4658462 67.9954973,16.0550769 68.6331505,14.9504615 L72.8661808,7.61738462 C73.503063,6.51276923 74.9179283,6.132 76.0243761,6.76892308 C77.1315949,7.40507692 77.5124906,8.81584615 76.8748374,9.92046154 L72.6425781,17.2543077 C72.2146488,17.9950769 71.4358946,18.4104615 70.6355512,18.4104615" id="Fill-49" fill="#E7380E"></path>
                    <path d="M57.6339798,13.7056923 C57.5013603,13.7056923 57.3664276,13.6941538 57.232266,13.6710769 C55.9739226,13.4503077 55.1319428,12.2549231 55.3524613,10.9995385 L56.8159024,2.66261538 C57.0371919,1.40723077 58.236936,0.566461538 59.4937374,0.788 C60.7520808,1.008 61.5940606,2.20338462 61.3735421,3.45876923 L59.90933,11.7956923 C59.7127138,12.9164615 58.7365724,13.7056923 57.6339798,13.7056923" id="Fill-51" fill="#E7380E"></path>
                    <polygon id="Fill-1" fill="#E7380E" points="106.759492 81.7576923 193.566684 81.7576923 193.566684 79.45 106.759492 79.45"></polygon>
                    <polygon id="Fill-2" fill="#E7380E" points="125.457303 44.8153846 228.873549 44.8153846 228.873549 42.5076923 125.457303 42.5076923"></polygon>
                </g>
            </g>
        </g>
    </g>
</svg>