<svg width="32" height="32" viewBox="0 0 32 32" fill="none" xmlns="http://www.w3.org/2000/svg">
<circle cx="16" cy="16" r="16" fill="#10B982"/>
<path d="M12.5781 5.42969C12.875 5.42969 13.125 5.53906 13.3281 5.75781C13.5469 5.96094 13.6562 6.21875 13.6562 6.53125C13.6562 6.82812 13.5469 7.08594 13.3281 7.30469C13.125 7.50781 12.875 7.60938 12.5781 7.60938H7.11719C6.82031 7.60938 6.5625 7.50781 6.34375 7.30469C6.14062 7.08594 6.03906 6.82812 6.03906 6.53125C6.03906 6.21875 6.14062 5.96094 6.34375 5.75781C6.5625 5.53906 6.82031 5.42969 7.11719 5.42969H12.5781ZM13.5156 8.66406C13.8125 8.66406 14.0703 8.77344 14.2891 8.99219C14.5234 9.21094 14.6406 9.47656 14.6406 9.78906C14.6406 10.1016 14.5234 10.3672 14.2891 10.5859C14.0703 10.8047 13.8125 10.9141 13.5156 10.9141H5.89844C5.58594 10.9141 5.32031 10.8047 5.10156 10.5859C4.88281 10.3672 4.77344 10.1016 4.77344 9.78906C4.77344 9.47656 4.88281 9.21094 5.10156 8.99219C5.32031 8.77344 5.58594 8.66406 5.89844 8.66406H13.5156ZM11.1016 21.0625C11.1016 20.9062 11.0234 20.8281 10.8672 20.8281H8.54688C8.39062 20.8281 8.3125 20.9062 8.3125 21.0625V23.3594C8.3125 23.5156 8.39062 23.5938 8.54688 23.5938H10.8672C11.0234 23.5938 11.1016 23.5156 11.1016 23.3594V21.0625ZM11.5703 18.5781C12.1328 18.5781 12.6094 18.7812 13 19.1875C13.4062 19.5781 13.6094 20.0547 13.6094 20.6172V23.8047C13.6094 24.3672 13.4062 24.8438 13 25.2344C12.6094 25.6406 12.1328 25.8438 11.5703 25.8438H8.42969C8.35156 25.8438 8.3125 25.875 8.3125 25.9375C8.3125 26.1719 8.22656 26.375 8.05469 26.5469C7.89844 26.7188 7.70312 26.8047 7.46875 26.8047H7.09375C6.75 26.8047 6.46094 26.6797 6.22656 26.4297C5.99219 26.1953 5.875 25.9141 5.875 25.5859V20.6172C5.875 20.0547 6.07031 19.5781 6.46094 19.1875C6.86719 18.7812 7.35156 18.5781 7.91406 18.5781H11.5703ZM7 17.4062C6.70312 17.4062 6.44531 17.3047 6.22656 17.1016C6.02344 16.8828 5.92188 16.625 5.92188 16.3281C5.92188 16.0312 6.02344 15.7812 6.22656 15.5781C6.44531 15.3594 6.70312 15.25 7 15.25H12.5781C12.875 15.25 13.125 15.3594 13.3281 15.5781C13.5469 15.7812 13.6562 16.0312 13.6562 16.3281C13.6562 16.625 13.5469 16.8828 13.3281 17.1016C13.125 17.3047 12.875 17.4062 12.5781 17.4062H7ZM7.02344 14.1719C6.71094 14.1719 6.44531 14.0703 6.22656 13.8672C6.02344 13.6484 5.92188 13.3906 5.92188 13.0938C5.92188 12.7812 6.02344 12.5234 6.22656 12.3203C6.44531 12.1016 6.71094 11.9922 7.02344 11.9922H12.5547C12.8516 11.9922 13.1094 12.1016 13.3281 12.3203C13.5469 12.5234 13.6562 12.7812 13.6562 13.0938C13.6562 13.3906 13.5469 13.6484 13.3281 13.8672C13.1094 14.0703 12.8516 14.1719 12.5547 14.1719H7.02344ZM25.9141 12.7188C26.3047 12.7188 26.6328 12.8594 26.8984 13.1406C27.1797 13.4062 27.3203 13.7344 27.3203 14.125C27.3203 14.5 27.1797 14.8281 26.8984 15.1094C26.6328 15.3906 26.3047 15.5312 25.9141 15.5312H22.6094C22.4531 15.5312 22.375 15.6094 22.375 15.7656V25.6094C22.375 26 22.2344 26.3359 21.9531 26.6172C21.6719 26.8984 21.3281 27.0391 20.9219 27.0391C20.5312 27.0391 20.1953 26.8984 19.9141 26.6172C19.6484 26.3359 19.5156 26 19.5156 25.6094V15.7656C19.5156 15.6094 19.4375 15.5312 19.2812 15.5312H15.8828C15.5078 15.5312 15.1797 15.3906 14.8984 15.1094C14.6172 14.8281 14.4766 14.5 14.4766 14.125C14.4766 13.7344 14.6172 13.4062 14.8984 13.1406C15.1797 12.8594 15.5078 12.7188 15.8828 12.7188H19.2812C19.4375 12.7188 19.5156 12.6406 19.5156 12.4844V6.22656C19.5156 5.83594 19.6484 5.5 19.9141 5.21875C20.1953 4.9375 20.5312 4.79688 20.9219 4.79688C21.3281 4.79688 21.6719 4.9375 21.9531 5.21875C22.2344 5.5 22.375 5.83594 22.375 6.22656V12.4844C22.375 12.6406 22.4531 12.7188 22.6094 12.7188H25.9141Z" fill="white"/>
</svg>
