<svg width="64" height="64" viewBox="0 0 64 64" fill="none" xmlns="http://www.w3.org/2000/svg">
<circle cx="32" cy="32" r="32" fill="#10B982"/>
<path d="M27.1562 9.85938C27.75 9.85938 28.25 10.0781 28.6562 10.5156C29.0938 10.9219 29.3125 11.4375 29.3125 12.0625C29.3125 12.6562 29.0938 13.1719 28.6562 13.6094C28.25 14.0156 27.75 14.2188 27.1562 14.2188H16.2344C15.6406 14.2188 15.125 14.0156 14.6875 13.6094C14.2812 13.1719 14.0781 12.6562 14.0781 12.0625C14.0781 11.4375 14.2812 10.9219 14.6875 10.5156C15.125 10.0781 15.6406 9.85938 16.2344 9.85938H27.1562ZM29.0312 16.3281C29.625 16.3281 30.1406 16.5469 30.5781 16.9844C31.0469 17.4219 31.2812 17.9531 31.2812 18.5781C31.2812 19.2031 31.0469 19.7344 30.5781 20.1719C30.1406 20.6094 29.625 20.8281 29.0312 20.8281H13.7969C13.1719 20.8281 12.6406 20.6094 12.2031 20.1719C11.7656 19.7344 11.5469 19.2031 11.5469 18.5781C11.5469 17.9531 11.7656 17.4219 12.2031 16.9844C12.6406 16.5469 13.1719 16.3281 13.7969 16.3281H29.0312ZM24.2031 41.125C24.2031 40.8125 24.0469 40.6562 23.7344 40.6562H19.0938C18.7812 40.6562 18.625 40.8125 18.625 41.125V45.7188C18.625 46.0312 18.7812 46.1875 19.0938 46.1875H23.7344C24.0469 46.1875 24.2031 46.0312 24.2031 45.7188V41.125ZM25.1406 36.1562C26.2656 36.1562 27.2188 36.5625 28 37.375C28.8125 38.1562 29.2188 39.1094 29.2188 40.2344V46.6094C29.2188 47.7344 28.8125 48.6875 28 49.4688C27.2188 50.2812 26.2656 50.6875 25.1406 50.6875H18.8594C18.7031 50.6875 18.625 50.75 18.625 50.875C18.625 51.3438 18.4531 51.75 18.1094 52.0938C17.7969 52.4375 17.4062 52.6094 16.9375 52.6094H16.1875C15.5 52.6094 14.9219 52.3594 14.4531 51.8594C13.9844 51.3906 13.75 50.8281 13.75 50.1719V40.2344C13.75 39.1094 14.1406 38.1562 14.9219 37.375C15.7344 36.5625 16.7031 36.1562 17.8281 36.1562H25.1406ZM16 33.8125C15.4062 33.8125 14.8906 33.6094 14.4531 33.2031C14.0469 32.7656 13.8438 32.25 13.8438 31.6562C13.8438 31.0625 14.0469 30.5625 14.4531 30.1562C14.8906 29.7188 15.4062 29.5 16 29.5H27.1562C27.75 29.5 28.25 29.7188 28.6562 30.1562C29.0938 30.5625 29.3125 31.0625 29.3125 31.6562C29.3125 32.25 29.0938 32.7656 28.6562 33.2031C28.25 33.6094 27.75 33.8125 27.1562 33.8125H16ZM16.0469 27.3438C15.4219 27.3438 14.8906 27.1406 14.4531 26.7344C14.0469 26.2969 13.8438 25.7812 13.8438 25.1875C13.8438 24.5625 14.0469 24.0469 14.4531 23.6406C14.8906 23.2031 15.4219 22.9844 16.0469 22.9844H27.1094C27.7031 22.9844 28.2188 23.2031 28.6562 23.6406C29.0938 24.0469 29.3125 24.5625 29.3125 25.1875C29.3125 25.7812 29.0938 26.2969 28.6562 26.7344C28.2188 27.1406 27.7031 27.3438 27.1094 27.3438H16.0469ZM53.8281 24.4375C54.6094 24.4375 55.2656 24.7188 55.7969 25.2812C56.3594 25.8125 56.6406 26.4688 56.6406 27.25C56.6406 28 56.3594 28.6562 55.7969 29.2188C55.2656 29.7812 54.6094 30.0625 53.8281 30.0625H47.2188C46.9062 30.0625 46.75 30.2188 46.75 30.5312V50.2188C46.75 51 46.4688 51.6719 45.9062 52.2344C45.3438 52.7969 44.6562 53.0781 43.8438 53.0781C43.0625 53.0781 42.3906 52.7969 41.8281 52.2344C41.2969 51.6719 41.0312 51 41.0312 50.2188V30.5312C41.0312 30.2188 40.875 30.0625 40.5625 30.0625H33.7656C33.0156 30.0625 32.3594 29.7812 31.7969 29.2188C31.2344 28.6562 30.9531 28 30.9531 27.25C30.9531 26.4688 31.2344 25.8125 31.7969 25.2812C32.3594 24.7188 33.0156 24.4375 33.7656 24.4375H40.5625C40.875 24.4375 41.0312 24.2812 41.0312 23.9688V11.4531C41.0312 10.6719 41.2969 10 41.8281 9.4375C42.3906 8.875 43.0625 8.59375 43.8438 8.59375C44.6562 8.59375 45.3438 8.875 45.9062 9.4375C46.4688 10 46.75 10.6719 46.75 11.4531V23.9688C46.75 24.2812 46.9062 24.4375 47.2188 24.4375H53.8281Z" fill="white"/>
</svg>
