<svg width="128" height="128" viewBox="0 0 128 128" fill="none" xmlns="http://www.w3.org/2000/svg">
<circle cx="64" cy="64" r="64" fill="#10B982"/>
<path d="M51.168 22.6113C52.2812 22.6113 53.2188 23.0215 53.9805 23.8418C54.8008 24.6035 55.2109 25.5703 55.2109 26.7422C55.2109 27.8555 54.8008 28.8223 53.9805 29.6426C53.2188 30.4043 52.2812 30.7852 51.168 30.7852H30.6895C29.5762 30.7852 28.6094 30.4043 27.7891 29.6426C27.0273 28.8223 26.6465 27.8555 26.6465 26.7422C26.6465 25.5703 27.0273 24.6035 27.7891 23.8418C28.6094 23.0215 29.5762 22.6113 30.6895 22.6113H51.168ZM54.6836 34.7402C55.7969 34.7402 56.7637 35.1504 57.584 35.9707C58.4629 36.791 58.9023 37.7871 58.9023 38.959C58.9023 40.1309 58.4629 41.127 57.584 41.9473C56.7637 42.7676 55.7969 43.1777 54.6836 43.1777H26.1191C24.9473 43.1777 23.9512 42.7676 23.1309 41.9473C22.3105 41.127 21.9004 40.1309 21.9004 38.959C21.9004 37.7871 22.3105 36.791 23.1309 35.9707C23.9512 35.1504 24.9473 34.7402 26.1191 34.7402H54.6836ZM45.6309 81.2344C45.6309 80.6484 45.3379 80.3555 44.752 80.3555H36.0508C35.4648 80.3555 35.1719 80.6484 35.1719 81.2344V89.8477C35.1719 90.4336 35.4648 90.7266 36.0508 90.7266H44.752C45.3379 90.7266 45.6309 90.4336 45.6309 89.8477V81.2344ZM47.3887 71.918C49.498 71.918 51.2852 72.6797 52.75 74.2031C54.2734 75.668 55.0352 77.4551 55.0352 79.5645V91.5176C55.0352 93.627 54.2734 95.4141 52.75 96.8789C51.2852 98.4023 49.498 99.1641 47.3887 99.1641H35.6113C35.3184 99.1641 35.1719 99.2812 35.1719 99.5156C35.1719 100.395 34.8496 101.156 34.2051 101.801C33.6191 102.445 32.8867 102.768 32.0078 102.768H30.6016C29.3125 102.768 28.2285 102.299 27.3496 101.361C26.4707 100.482 26.0312 99.4277 26.0312 98.1973V79.5645C26.0312 77.4551 26.7637 75.668 28.2285 74.2031C29.752 72.6797 31.5684 71.918 33.6777 71.918H47.3887ZM30.25 67.5234C29.1367 67.5234 28.1699 67.1426 27.3496 66.3809C26.5879 65.5605 26.207 64.5938 26.207 63.4805C26.207 62.3672 26.5879 61.4297 27.3496 60.668C28.1699 59.8477 29.1367 59.4375 30.25 59.4375H51.168C52.2812 59.4375 53.2188 59.8477 53.9805 60.668C54.8008 61.4297 55.2109 62.3672 55.2109 63.4805C55.2109 64.5938 54.8008 65.5605 53.9805 66.3809C53.2188 67.1426 52.2812 67.5234 51.168 67.5234H30.25ZM30.3379 55.3945C29.166 55.3945 28.1699 55.0137 27.3496 54.252C26.5879 53.4316 26.207 52.4648 26.207 51.3516C26.207 50.1797 26.5879 49.2129 27.3496 48.4512C28.1699 47.6309 29.166 47.2207 30.3379 47.2207H51.0801C52.1934 47.2207 53.1602 47.6309 53.9805 48.4512C54.8008 49.2129 55.2109 50.1797 55.2109 51.3516C55.2109 52.4648 54.8008 53.4316 53.9805 54.252C53.1602 55.0137 52.1934 55.3945 51.0801 55.3945H30.3379ZM101.178 49.9453C102.643 49.9453 103.873 50.4727 104.869 51.5273C105.924 52.5234 106.451 53.7539 106.451 55.2188C106.451 56.625 105.924 57.8555 104.869 58.9102C103.873 59.9648 102.643 60.4922 101.178 60.4922H88.7852C88.1992 60.4922 87.9062 60.7852 87.9062 61.3711V98.2852C87.9062 99.75 87.3789 101.01 86.3242 102.064C85.2695 103.119 83.9805 103.646 82.457 103.646C80.9922 103.646 79.7324 103.119 78.6777 102.064C77.6816 101.01 77.1836 99.75 77.1836 98.2852V61.3711C77.1836 60.7852 76.8906 60.4922 76.3047 60.4922H63.5605C62.1543 60.4922 60.9238 59.9648 59.8691 58.9102C58.8145 57.8555 58.2871 56.625 58.2871 55.2188C58.2871 53.7539 58.8145 52.5234 59.8691 51.5273C60.9238 50.4727 62.1543 49.9453 63.5605 49.9453H76.3047C76.8906 49.9453 77.1836 49.6523 77.1836 49.0664V25.5996C77.1836 24.1348 77.6816 22.875 78.6777 21.8203C79.7324 20.7656 80.9922 20.2383 82.457 20.2383C83.9805 20.2383 85.2695 20.7656 86.3242 21.8203C87.3789 22.875 87.9062 24.1348 87.9062 25.5996V49.0664C87.9062 49.6523 88.1992 49.9453 88.7852 49.9453H101.178Z" fill="white"/>
</svg>
